<?xml version="1.0" encoding="UTF-8"?>
<svg width="40" height="40" viewBox="0 0 40 40" xmlns="http://www.w3.org/2000/svg">
  <defs>
    <linearGradient id="logoGradient" x1="0%" y1="0%" x2="100%" y2="100%">
      <stop offset="0%" stop-color="#4CAF50" />
      <stop offset="100%" stop-color="#388E3C" />
    </linearGradient>
  </defs>
  <rect width="40" height="40" fill="url(#logoGradient)" rx="8" ry="8"/>
  <path d="M10,20 C10,15 15,10 20,10 C25,10 30,15 30,20 C30,25 25,30 20,30 C15,30 10,25 10,20 Z" fill="none" stroke="white" stroke-width="1.5"/>
  <path d="M20,10 C20,10 25,15 25,20 C25,25 20,30 20,30 C20,30 15,25 15,20 C15,15 20,10 20,10 Z" fill="none" stroke="white" stroke-width="1.5"/>
  <path d="M10,20 L30,20" stroke="white" stroke-width="1.5"/>
  <circle cx="20" cy="20" r="3" fill="white"/>
  <text x="20" y="26" font-family="Arial, sans-serif" font-size="6" font-weight="bold" fill="white" text-anchor="middle">FARM FRESH</text>
</svg>
